# xmcd CD database file
#
# Track frame offsets:
#	150
#	19769
#	41761
#	59009
#	72441
#	92908
#	115864
#	133946
#	152674
#	178263
#	199583
#	221487
#
# Disc length: 3191 seconds
#
# Revision: 0
# Processed by: cddbd v1.5.1PL0 Copyright (c) Steve Scherf et al.
# Submitted via: CDex 1.51
#
DISCID=b50c750c
DTITLE=Guitar Gabriel - Deep In The South
DYEAR=1999
DGENRE=Blues
TTITLE0=Came So Far
TTITLE1=Expressin' The Blues
TTITLE2=Ain't Gonna Let No Woman
TTITLE3=Betty And De Prit
TTITLE4=Old Fashioned Love
TTITLE5=Southland Blues
TTITLE6=Down On The Farm
TTITLE7=Miss You Like The Devil
TTITLE8=Sweet Little Angel
TTITLE9=I'm Mixed Up
TTITLE10=Make The Best Of Your Knowin'
TTITLE11=Juice Headed Woman
EXTD=YEAR: 1999
EXTT0=
EXTT1=
EXTT2=
EXTT3=
EXTT4=
EXTT5=
EXTT6=
EXTT7=
EXTT8=
EXTT9=
EXTT10=
EXTT11=
PLAYORDER=
